<?xml version="1.0" encoding="UTF-8"?><svg id="Layer_1" xmlns="http://www.w3.org/2000/svg" xmlns:xlink="http://www.w3.org/1999/xlink" viewBox="0 0 48.83 48.83"><defs><style>.cls-1{fill:url(#linear-gradient-2);}.cls-2{fill:#ffc20e;}.cls-3{fill:none;}.cls-4{fill:url(#linear-gradient);}</style><linearGradient id="linear-gradient" x1="26.79" y1="25.66" x2="26.79" y2="25.66" gradientTransform="matrix(1, 0, 0, 1, 0, 0)" gradientUnits="userSpaceOnUse"><stop offset="0" stop-color="#ffc20e"/><stop offset=".06" stop-color="#ffc71f"/><stop offset=".19" stop-color="#ffd44c"/><stop offset=".37" stop-color="#ffe994"/><stop offset=".51" stop-color="#fffcd5"/><stop offset=".6" stop-color="#fff3b6"/><stop offset=".79" stop-color="#ffdc67"/><stop offset="1" stop-color="#ffc20e"/></linearGradient><linearGradient id="linear-gradient-2" x1="13.95" y1="17.15" x2="33.15" y2="33.63" gradientTransform="matrix(1, 0, 0, 1, 0, 0)" gradientUnits="userSpaceOnUse"><stop offset=".04" stop-color="#ffc20e"/><stop offset=".09" stop-color="#ffc518"/><stop offset=".17" stop-color="#ffcd36"/><stop offset=".29" stop-color="#ffdb66"/><stop offset=".42" stop-color="#ffeea7"/><stop offset=".51" stop-color="#fffcd5"/><stop offset=".55" stop-color="#fff8c7"/><stop offset=".64" stop-color="#ffeda3"/><stop offset=".75" stop-color="#ffdc6a"/><stop offset=".89" stop-color="#ffc51b"/><stop offset=".91" stop-color="#ffc20e"/></linearGradient></defs><g><path class="cls-4" d="M26.79,36.62h0v-9.54h0v9.54Zm0-12h0v0Z"/><path class="cls-1" d="M32.16,26.71c.95-.33,1.75-.85,2.39-1.56,.64-.72,1.12-1.56,1.44-2.54,.32-.98,.48-2.05,.48-3.2,0-1.43-.24-2.69-.73-3.77-.49-1.08-1.21-1.92-2.17-2.52-.96-.6-2.14-.9-3.52-.9h-5.79V31.33c-.09-.24-.18-.5-.29-.76-.16-.39-.37-.82-.6-1.28-.24-.47-.39-.77-.47-.92L14.86,12.2h-2.66v24.42h2.41V17.32c.11,.33,.23,.65,.37,.98,.14,.33,.3,.68,.49,1.05,.19,.38,.31,.62,.34,.72l.36,.72,7.82,15.83h2.79v-9.54h2.63l5.13,9.54h3.01l-5.4-9.91Zm-5.38-2.09V14.7h3.27c1.26,0,2.22,.38,2.87,1.13,.65,.75,1.05,2.29,1.05,3.72s-.35,3.03-1.06,3.84c-.7,.82-1.74,1.22-3.11,1.22h-3.03Z"/></g><polygon class="cls-2" points="7.33 7.33 16.72 7.33 16.72 4.86 4.87 4.86 4.87 16.72 7.33 16.72 7.33 7.33"/><polygon class="cls-2" points="41.49 41.49 32.11 41.49 32.11 43.96 43.96 43.96 43.96 32.11 41.49 32.11 41.49 41.49"/><rect class="cls-3" width="48.83" height="48.83"/></svg>